HIERARCHY
ROOT Hips
{
	OFFSET -2.069440 95.939100 -0.521947
	CHANNELS 6 Xposition Yposition Zposition Zrotation Yrotation Xrotation 
	JOINT Spine
	{
		OFFSET 0.000000 5.645720 -0.031929
		CHANNELS 3 Zrotation Yrotation Xrotation
		JOINT Spine1
		{
			OFFSET 0.000000 6.586780 0.000000
			CHANNELS 3 Zrotation Yrotation Xrotation
			JOINT Spine2
			{
				OFFSET 0.000000 7.527750 0.000000
				CHANNELS 3 Zrotation Yrotation Xrotation
				JOINT Neck
				{
					OFFSET 0.000000 8.468720 0.000000
					CHANNELS 3 Zrotation Yrotation Xrotation
					JOINT Head
					{
						OFFSET 0.000000 5.998900 -1.158960
						CHANNELS 3 Zrotation Yrotation Xrotation
						End Site
						{
							OFFSET 0.000000 0.000000 0.000000
						}
					}
				}
				JOINT LeftShoulder
				{
					OFFSET 3.414670 7.343370 -0.017399
					CHANNELS 3 Zrotation Yrotation Xrotation
					JOINT LeftArm
					{
						OFFSET 0.000000 7.189680 0.000000
						CHANNELS 3 Zrotation Yrotation Xrotation
						JOINT LeftForeArm
						{
							OFFSET 0.000000 24.203600 0.000000
							CHANNELS 3 Zrotation Yrotation Xrotation
							JOINT LeftHand
							{
								OFFSET 0.000000 21.595100 0.000000
								CHANNELS 3 Zrotation Yrotation Xrotation
								JOINT LeftHandThumb1
								{
									OFFSET -2.145260 2.098240 1.106680
									CHANNELS 3 Zrotation Yrotation Xrotation
									JOINT LeftHandThumb2
									{
										OFFSET -0.442220 2.520180 0.000000
										CHANNELS 3 Zrotation Yrotation Xrotation
										JOINT LeftHandThumb3
										{
											OFFSET 0.050098 3.105540 0.000000
											CHANNELS 3 Zrotation Yrotation Xrotation
											End Site
											{
												OFFSET 0.000000 0.000000 0.000000
											}
										}
									}
								}
								JOINT LeftHandIndex1
								{
									OFFSET -2.561020 7.100100 0.048590
									CHANNELS 3 Zrotation Yrotation Xrotation
									JOINT LeftHandIndex2
									{
										OFFSET -0.000565 3.000100 0.000000
										CHANNELS 3 Zrotation Yrotation Xrotation
										JOINT LeftHandIndex3
										{
											OFFSET 0.000474 2.748580 0.000000
											CHANNELS 3 Zrotation Yrotation Xrotation
											End Site
											{
												OFFSET 0.000000 0.000000 0.000000
											}
										}
									}
								}
								JOINT LeftHandMiddle1
								{
									OFFSET -0.824928 7.382680 -0.104729
									CHANNELS 3 Zrotation Yrotation Xrotation
									JOINT LeftHandMiddle2
									{
										OFFSET -0.001894 3.379570 0.000000
										CHANNELS 3 Zrotation Yrotation Xrotation
										JOINT LeftHandMiddle3
										{
											OFFSET 0.005514 3.190790 0.000000
											CHANNELS 3 Zrotation Yrotation Xrotation
											End Site
											{
												OFFSET 0.000000 0.000000 0.000000
											}
										}
									}
								}
								JOINT LeftHandRing1
								{
									OFFSET 0.887762 7.537540 0.096351
									CHANNELS 3 Zrotation Yrotation Xrotation
									JOINT LeftHandRing2
									{
										OFFSET -0.004293 2.845230 0.000000
										CHANNELS 3 Zrotation Yrotation Xrotation
										JOINT LeftHandRing3
										{
											OFFSET 0.000745 2.681010 0.000000
											CHANNELS 3 Zrotation Yrotation Xrotation
											End Site
											{
												OFFSET 0.000000 0.000000 0.000000
											}
										}
									}
								}
								JOINT LeftHandPinky1
								{
									OFFSET 2.498190 7.361750 0.028723
									CHANNELS 3 Zrotation Yrotation Xrotation
									JOINT LeftHandPinky2
									{
										OFFSET 0.000524 2.480180 0.000000
										CHANNELS 3 Zrotation Yrotation Xrotation
										JOINT LeftHandPinky3
										{
											OFFSET 0.001382 1.951100 0.000000
											CHANNELS 3 Zrotation Yrotation Xrotation
											End Site
											{
												OFFSET 0.000000 0.000000 0.000000
											}
										}
									}
								}
							}
						}
					}
				}
				JOINT RightShoulder
				{
					OFFSET -3.414670 7.343250 0.004669
					CHANNELS 3 Zrotation Yrotation Xrotation
					JOINT RightArm
					{
						OFFSET 0.000000 7.189680 0.000000
						CHANNELS 3 Zrotation Yrotation Xrotation
						JOINT RightForeArm
						{
							OFFSET 0.000000 24.202700 0.000000
							CHANNELS 3 Zrotation Yrotation Xrotation
							JOINT RightHand
							{
								OFFSET 0.000000 21.595600 0.000000
								CHANNELS 3 Zrotation Yrotation Xrotation
								JOINT RightHandThumb1
								{
									OFFSET 2.165390 2.135240 1.174500
									CHANNELS 3 Zrotation Yrotation Xrotation
									JOINT RightHandThumb2
									{
										OFFSET 0.438063 2.570950 0.000000
										CHANNELS 3 Zrotation Yrotation Xrotation
										JOINT RightHandThumb3
										{
											OFFSET -0.052069 3.059310 0.000000
											CHANNELS 3 Zrotation Yrotation Xrotation
											End Site
											{
												OFFSET 0.000000 0.000000 0.000000
											}
										}
									}
								}
								JOINT RightHandIndex1
								{
									OFFSET 2.566980 7.104990 0.039442
									CHANNELS 3 Zrotation Yrotation Xrotation
									JOINT RightHandIndex2
									{
										OFFSET -0.001005 2.949330 0.000000
										CHANNELS 3 Zrotation Yrotation Xrotation
										JOINT RightHandIndex3
										{
											OFFSET -0.005538 2.801570 0.000000
											CHANNELS 3 Zrotation Yrotation Xrotation
											End Site
											{
												OFFSET 0.000000 0.000000 0.000000
											}
										}
									}
								}
								JOINT RightHandMiddle1
								{
									OFFSET 0.836095 7.262780 -0.110122
									CHANNELS 3 Zrotation Yrotation Xrotation
									JOINT RightHandMiddle2
									{
										OFFSET 0.009278 3.311090 0.000000
										CHANNELS 3 Zrotation Yrotation Xrotation
										JOINT RightHandMiddle3
										{
											OFFSET -0.000049 3.189110 0.000000
											CHANNELS 3 Zrotation Yrotation Xrotation
											End Site
											{
												OFFSET 0.000000 0.000000 0.000000
											}
										}
									}
								}
								JOINT RightHandRing1
								{
									OFFSET -0.985335 7.492670 -0.018888
									CHANNELS 3 Zrotation Yrotation Xrotation
									JOINT RightHandRing2
									{
										OFFSET 0.001496 2.815510 0.000000
										CHANNELS 3 Zrotation Yrotation Xrotation
										JOINT RightHandRing3
										{
											OFFSET -0.000063 2.735680 0.000000
											CHANNELS 3 Zrotation Yrotation Xrotation
											End Site
											{
												OFFSET 0.000000 0.000000 0.000000
											}
										}
									}
								}
								JOINT RightHandPinky1
								{
									OFFSET -2.417740 7.441800 0.091014
									CHANNELS 3 Zrotation Yrotation Xrotation
									JOINT RightHandPinky2
									{
										OFFSET -0.000703 2.449320 0.000000
										CHANNELS 3 Zrotation Yrotation Xrotation
										JOINT RightHandPinky3
										{
											OFFSET -0.006402 1.966050 0.000000
											CHANNELS 3 Zrotation Yrotation Xrotation
											End Site
											{
												OFFSET 0.000000 0.000000 0.000000
											}
										}
									}
								}
							}
						}
					}
				}
			}
		}
	}
	JOINT LeftUpLeg
	{
		OFFSET 6.620180 -8.816850 -0.447183
		CHANNELS 3 Zrotation Yrotation Xrotation
		JOINT LeftLeg
		{
			OFFSET -0.372256 36.185200 0.088340
			CHANNELS 3 Zrotation Yrotation Xrotation
			JOINT LeftFoot
			{
				OFFSET 0.000000 46.263100 0.000000
				CHANNELS 3 Zrotation Yrotation Xrotation
				JOINT LeftToeBase
				{
					OFFSET 0.000000 16.368600 0.000000
					CHANNELS 3 Zrotation Yrotation Xrotation
					End Site
					{
						OFFSET 0.000000 0.000000 0.000000
					}
				}
			}
		}
	}
	JOINT RightUpLeg
	{
		OFFSET -6.620180 -8.816850 -0.447183
		CHANNELS 3 Zrotation Yrotation Xrotation
		JOINT RightLeg
		{
			OFFSET 0.372114 36.183900 0.496157
			CHANNELS 3 Zrotation Yrotation Xrotation
			JOINT RightFoot
			{
				OFFSET 0.000000 46.253300 0.000000
				CHANNELS 3 Zrotation Yrotation Xrotation
				JOINT RightToeBase
				{
					OFFSET 0.000000 16.863400 0.000000
					CHANNELS 3 Zrotation Yrotation Xrotation
					End Site
					{
						OFFSET 0.000000 0.000000 0.000000
					}
				}
			}
		}
	}
}
MOTION
Frames: 6
Frame Time: 0.033333
0.200856 94.650513 6.999088 4.262504 10.568895 -6.327119 -2.011137 1.599003 10.818055 0.157446 0.264776 1.589229 0.151482 0.266535 1.587699 0.000016 -3.121854 3.989616 -3.292753 -5.285626 -1.128240 167.263494 84.669445 -70.561049 11.381995 26.274993 36.165152 100.364617 -1.636580 0.983098 7.253958 -19.015687 -0.706377 24.319441 11.743412 15.895183 -15.523463 -0.532418 -10.402007 22.377259 4.884092 -13.429132 -0.885107 1.909446 44.200133 -5.581624 9.756789 121.796080 -3.793958 1.318427 36.011080 3.210234 -2.078184 44.637777 -5.484139 9.764082 121.904614 -3.643614 1.234578 35.721312 -1.897681 2.809798 53.719110 -5.573798 10.127823 121.928181 -3.652505 1.186227 35.562456 2.109523 -3.547405 58.687566 -6.151391 8.819375 110.442650 -4.851457 2.210949 48.301582 -2.291559 -81.438843 129.289333 2.585607 22.297492 38.559166 -15.554372 0.514530 0.259861 4.396348 -36.990339 6.744931 -25.659138 -3.664343 16.675540 16.040404 -0.161465 0.837130 9.920067 0.023979 -14.749561 -2.638473 -0.108275 15.445250 2.363089 -0.682010 32.272801 0.818830 -0.089734 11.468402 -2.064251 -0.285711 23.144978 2.321074 -0.670109 32.302177 0.829851 -0.083967 11.174400 -1.691417 -0.255218 26.718437 2.318538 -0.668999 32.346836 0.925071 -0.084548 11.029647 -1.752231 -0.689763 28.204989 2.080425 -0.610473 32.454845 0.723958 -0.060088 10.490784 178.578092 2.265769 13.764381 -2.739757 1.210981 -46.335690 -7.481363 -9.520584 64.615362 -0.004647 -0.392046 34.593222 177.885865 0.982159 -3.010625 -1.532928 8.973863 -19.121273 -2.596365 9.356572 73.712813 0.001717 0.188265 35.470281 
0.545552 94.666992 9.656549 4.894403 10.368936 -5.765003 -2.323185 2.435723 10.300844 -0.084592 0.412185 1.553160 -0.093842 0.412199 1.550886 -0.270612 -3.089089 4.195571 -3.875612 -4.881624 0.055014 167.393324 84.339506 -69.904909 11.375664 26.192151 36.186851 100.353716 -1.636371 0.983151 7.956925 -18.526300 -1.333457 24.319441 11.743412 15.895183 -15.523463 -0.532418 -10.402007 22.377259 4.884092 -13.429132 -0.885107 1.909446 44.200133 -5.581624 9.756789 121.796080 -3.793958 1.318427 36.011080 3.210234 -2.078184 44.637777 -5.484139 9.764082 121.904614 -3.643614 1.234578 35.721312 -1.897681 2.809798 53.719110 -5.573798 10.127823 121.928181 -3.652505 1.186227 35.562456 2.109523 -3.547405 58.687566 -6.151391 8.819375 110.442650 -4.851457 2.210949 48.301582 -2.268684 -81.217974 128.611307 0.171312 21.640275 37.859736 -16.887406 0.520815 0.281492 4.058575 -37.123574 7.594269 -25.659138 -3.664343 16.675540 16.040404 -0.161465 0.837130 9.920067 0.023979 -14.749561 -2.638473 -0.108275 15.445250 2.363089 -0.682010 32.272801 0.818830 -0.089734 11.468402 -2.064251 -0.285711 23.144978 2.321074 -0.670109 32.302177 0.829851 -0.083967 11.174400 -1.691417 -0.255218 26.718437 2.318538 -0.668999 32.346836 0.925071 -0.084548 11.029647 -1.752231 -0.689763 28.204989 2.080425 -0.610473 32.454845 0.723958 -0.060088 10.490784 177.632785 2.909256 16.589952 -0.893184 -0.541226 -39.174902 -8.413991 -8.979113 67.935186 0.001154 -0.115915 32.317089 176.971997 1.786288 -5.186623 -0.824342 8.205079 -17.484185 -2.557247 9.185832 74.792867 0.001905 0.195589 35.530231 
0.983773 94.557777 12.480009 5.136695 9.675663 -5.057864 -2.218734 3.417734 9.625034 -0.256030 0.585687 1.530319 -0.268379 0.584177 1.528007 -0.585195 -3.042775 4.306969 -4.679751 -4.431816 0.722158 167.412032 83.924834 -69.139554 11.440405 25.974142 36.368010 100.292105 -1.635312 0.983351 8.559035 -18.468354 -1.482596 24.319441 11.743412 15.895183 -15.523463 -0.532418 -10.402007 22.377259 4.884092 -13.429132 -0.885107 1.909446 44.200133 -5.581624 9.756789 121.796080 -3.793958 1.318427 36.011080 3.210234 -2.078184 44.637777 -5.484139 9.764082 121.904614 -3.643614 1.234578 35.721312 -1.897681 2.809798 53.719110 -5.573798 10.127823 121.928181 -3.652505 1.186227 35.562456 2.109523 -3.547405 58.687566 -6.151391 8.819375 110.442650 -4.851457 2.210949 48.301582 -2.207158 -80.955815 127.976787 -1.984515 20.943301 36.961046 -18.413481 0.528645 0.306099 3.668361 -36.615355 8.070606 -25.659138 -3.664343 16.675540 16.040404 -0.161465 0.837130 9.920067 0.023979 -14.749561 -2.638473 -0.108275 15.445250 2.363089 -0.682010 32.272801 0.818830 -0.089734 11.468402 -2.064251 -0.285711 23.144978 2.321074 -0.670109 32.302177 0.829851 -0.083967 11.174400 -1.691417 -0.255218 26.718437 2.318538 -0.668999 32.346836 0.925071 -0.084548 11.029647 -1.752231 -0.689763 28.204989 2.080425 -0.610473 32.454845 0.723958 -0.060088 10.490784 177.175668 3.505732 18.866967 1.091645 -3.269311 -31.508464 -8.614640 -8.325120 72.648035 -0.004088 0.162408 30.022985 176.291929 2.509775 -7.339448 0.053339 7.032780 -15.505513 -2.604090 9.024876 75.653012 0.002442 0.215791 35.695558 
1.524351 94.250610 15.342454 4.878514 8.502497 -4.482710 -1.653171 4.389609 8.967350 -0.360297 0.757463 1.506000 -0.375175 0.754604 1.504709 -0.902785 -2.974012 4.336087 -5.659027 -3.777973 0.909077 167.329485 83.522048 -68.447260 11.445573 25.596288 36.940472 100.375970 -1.636752 0.983087 8.878645 -18.635699 -1.286173 24.319441 11.743412 15.895183 -15.523463 -0.532418 -10.402007 22.377259 4.884092 -13.429132 -0.885107 1.909446 44.200133 -5.581624 9.756789 121.796080 -3.793958 1.318427 36.011080 3.210234 -2.078184 44.637777 -5.484139 9.764082 121.904614 -3.643614 1.234578 35.721312 -1.897681 2.809798 53.719110 -5.573798 10.127823 121.928181 -3.652505 1.186227 35.562456 2.109523 -3.547405 58.687566 -6.151391 8.819375 110.442650 -4.851457 2.210949 48.301582 -2.103754 -80.645152 127.402457 -3.741777 20.415751 35.994825 -19.944065 0.537146 0.330543 3.309050 -35.862208 8.145804 -25.659138 -3.664343 16.675540 16.040404 -0.161465 0.837130 9.920067 0.023979 -14.749561 -2.638473 -0.108275 15.445250 2.363089 -0.682010 32.272801 0.818830 -0.089734 11.468402 -2.064251 -0.285711 23.144978 2.321074 -0.670109 32.302177 0.829851 -0.083967 11.174400 -1.691417 -0.255218 26.718437 2.318538 -0.668999 32.346836 0.925071 -0.084548 11.029647 -1.752231 -0.689763 28.204989 2.080425 -0.610473 32.454845 0.723958 -0.060088 10.490784 177.358052 3.928966 19.690604 2.003154 -5.998688 -21.692566 -7.426236 -8.025768 74.971905 -0.004938 0.183505 29.848950 175.921212 3.072862 -9.513653 0.977649 5.499916 -13.559822 -2.624442 8.856708 76.576034 0.002759 0.226690 35.784760 
2.150779 93.762527 18.218763 4.238154 7.167059 -4.164736 -0.882324 5.100141 8.489501 -0.408792 0.883404 1.492675 -0.425095 0.879483 1.493103 -1.155943 -2.878378 4.303047 -6.630132 -2.845492 0.725650 167.248873 83.187210 -67.899382 11.397926 25.152570 37.892528 100.703445 -1.642409 0.982045 8.959151 -18.802427 -1.125942 24.319441 11.743412 15.895183 -15.523463 -0.532418 -10.402007 22.377259 4.884092 -13.429132 -0.885107 1.909446 44.200133 -5.581624 9.756789 121.796080 -3.793958 1.318427 36.011080 3.210234 -2.078184 44.637777 -5.484139 9.764082 121.904614 -3.643614 1.234578 35.721312 -1.897681 2.809798 53.719110 -5.573798 10.127823 121.928181 -3.652505 1.186227 35.562456 2.109523 -3.547405 58.687566 -6.151391 8.819375 110.442650 -4.851457 2.210949 48.301582 -2.002468 -80.368139 126.959389 -5.074398 20.389272 35.189949 -21.135382 0.544214 0.349419 2.989185 -35.385269 7.984680 -25.659138 -3.664343 16.675540 16.040404 -0.161465 0.837130 9.920067 0.023979 -14.749561 -2.638473 -0.108275 15.445250 2.363089 -0.682010 32.272801 0.818830 -0.089734 11.468402 -2.064251 -0.285711 23.144978 2.321074 -0.670109 32.302177 0.829851 -0.083967 11.174400 -1.691417 -0.255218 26.718437 2.318538 -0.668999 32.346836 0.925071 -0.084548 11.029647 -1.752231 -0.689763 28.204989 2.080425 -0.610473 32.454845 0.723958 -0.060088 10.490784 178.124350 4.020035 22.163280 2.081298 -6.717140 -18.220539 -6.493180 -7.577191 79.733080 -0.007495 0.239353 29.388200 175.771333 3.535952 -11.914275 1.803966 3.886790 -11.658564 -2.561065 8.597965 77.570698 0.002887 0.230989 35.819945 
2.846119 93.147278 21.193605 3.604192 6.080060 -4.078655 -0.370641 5.463916 8.216129 -0.416665 0.947857 1.532643 -0.432397 0.943667 1.534295 -1.285111 -2.765682 4.233889 -7.343707 -1.717623 0.299550 167.222849 82.916480 -67.475137 11.464805 24.826305 38.899980 101.211074 -1.651053 0.980341 8.982603 -18.940474 -1.317013 24.319441 11.743412 15.895183 -15.523463 -0.532418 -10.402007 22.377259 4.884092 -13.429132 -0.885107 1.909446 44.200133 -5.581624 9.756789 121.796080 -3.793958 1.318427 36.011080 3.210234 -2.078184 44.637777 -5.484139 9.764082 121.904614 -3.643614 1.234578 35.721312 -1.897681 2.809798 53.719110 -5.573798 10.127823 121.928181 -3.652505 1.186227 35.562456 2.109523 -3.547405 58.687566 -6.151391 8.819375 110.442650 -4.851457 2.210949 48.301582 -1.968731 -80.227332 126.761215 -5.916769 21.129892 34.828363 -21.672725 0.547525 0.357887 2.703785 -35.380497 7.690002 -25.659138 -3.664343 16.675540 16.040404 -0.161465 0.837130 9.920067 0.023979 -14.749561 -2.638473 -0.108275 15.445250 2.363089 -0.682010 32.272801 0.818830 -0.089734 11.468402 -2.064251 -0.285711 23.144978 2.321074 -0.670109 32.302177 0.829851 -0.083967 11.174400 -1.691417 -0.255218 26.718437 2.318538 -0.668999 32.346836 0.925071 -0.084548 11.029647 -1.752231 -0.689763 28.204989 2.080425 -0.610473 32.454845 0.723958 -0.060088 10.490784 178.846092 3.888932 23.275684 1.266432 -5.270779 -15.715532 -4.404000 -7.675716 79.476964 -0.003049 0.134362 30.254210 175.531924 3.969866 -14.868672 2.399051 2.610185 -9.436875 -2.382132 8.096138 78.485410 0.005672 0.308554 36.454943 
